# xmcd
#
# Track frame offsets: 
#        150
#        2805
#        19095
#        42669
#        57206
#        74833
#        89306
#        106565
#        110055
#        124445
#        139008
#        143763
#        160928
#        177276
#        195323
#        220957
#        237530
#
# Disc length: 3232 seconds
#
# Revision: 0
# Processed by: cddbd v1.5.2PL0 Copyright (c) Steve Scherf et al.
# Submitted via: ExactAudioCopyFreeDBPlugin 1.0
#
DISCID=f90c9e11
DTITLE=Pete Alderton - Living on Love (remastered)
DYEAR=2014
DGENRE=Blues
TTITLE0=It seems stange (Intro)
TTITLE1=(She said that) evil was her name
TTITLE2=Song for David (alternative Version)
TTITLE3=Have the roses gone dry
TTITLE4=I'm sad
TTITLE5=Living on love
TTITLE6=Jesus in a bottle
TTITLE7=A fool for her body
TTITLE8=Witching your (skit)
TTITLE9=Give me all your love
TTITLE10=I still remember... (skit)
TTITLE11=A taste of the blues
TTITLE12=Baby I love you
TTITLE13=The loved
TTITLE14=(She said that) evil was her name (full edit)
TTITLE15=Passing ships
TTITLE16=The end of the day (outro)
EXTD=
EXTT0=
EXTT1=
EXTT2=
EXTT3=
EXTT4=
EXTT5=
EXTT6=
EXTT7=
EXTT8=
EXTT9=
EXTT10=
EXTT11=
EXTT12=
EXTT13=
EXTT14=
EXTT15=
EXTT16=
PLAYORDER=
